<?xml version="1.0" encoding="UTF-8"?>
<!-- Generator: visioncortex VTracer 0.6.4 -->
<svg version="1.1" xmlns="http://www.w3.org/2000/svg" width="16" height="16">
<path d="M0,0 L16,0 L16,16 L0,16 Z M1,1 L1,15 L15,15 L15,1 Z " fill="#1E4BF5" transform="translate(0,0)"/>
<path d="M0,0 L10,0 L10,8 L0,8 Z M2,1 L2,2 L1,2 L1,7 L9,7 L9,2 L8,2 L8,1 Z " fill="#1E4BF5" transform="translate(3,4)"/>
<path d="M0,0 L4,0 L4,1 L0,1 Z " fill="#1E4BF5" transform="translate(6,7)"/>
<path d="M0,0 L1,0 L1,1 L0,1 Z " fill="#1E4BF5" transform="translate(10,6)"/>
<path d="M0,0 L1,0 L1,1 L0,1 Z " fill="#1E4BF5" transform="translate(5,6)"/>
</svg>
