<?xml version="1.0" encoding="UTF-8"?>
<!-- Generator: visioncortex VTracer 0.6.4 -->
<svg version="1.1" xmlns="http://www.w3.org/2000/svg" width="16" height="16">
<path d="M0,0 L16,0 L16,16 L0,16 Z M1,1 L1,15 L15,15 L15,1 Z " fill="#1E4BF5" transform="translate(0,0)"/>
<path d="M0,0 L2,0 L2,1 L3,1 L3,0 L6,0 L6,1 L7,1 L7,7 L5,7 L5,3 L3,3 L3,4 L2,4 L2,7 L0,7 Z " fill="#1E4BF5" transform="translate(6,6)"/>
<path d="M0,0 L2,0 L2,7 L0,7 Z " fill="#1E4BF5" transform="translate(3,6)"/>
<path d="M0,0 L2,0 L2,2 L0,2 Z " fill="#1E4BF5" transform="translate(3,3)"/>
</svg>
